<?xml version="1.0" encoding="UTF-8"?>
<svg width="80px" height="16px" viewBox="0 0 80 16" version="1.1" xmlns="http://www.w3.org/2000/svg" xmlns:xlink="http://www.w3.org/1999/xlink">
    <!-- Generator: Sketch 44 (41411) - http://www.bohemiancoding.com/sketch -->
    <title>rootery logo</title>
    <desc>Created with Sketch.</desc>
    <defs>
        <polygon id="path-1" points="1.08420217e-20 0.6764 1.08420217e-20 14.9748 9.99984 14.9748 9.99984 0.6764 0 0.6764"></polygon>
        <polygon id="path-3" points="15.00952 15.2 0.26072 15.2 0.26072 0.45136 15.00952 0.45136 15.00952 15.2"></polygon>
        <polygon id="path-5" points="15.11968 15.2 0.37088 15.2 0.37088 0.45136 15.11968 0.45136 15.11968 15.2"></polygon>
    </defs>
    <g id="Page-1" stroke="none" stroke-width="1" fill="none" fill-rule="evenodd">
        <g id="Main-Product-Page-Copy-7" transform="translate(-41.000000, -23.000000)">
            <g id="rootery-logo" transform="translate(41.000000, 23.000000)">
                <path d="M37.24696,2.06472 L33.44616,2.06472 C33.24696,2.06472 33.18696,1.94552 33.18696,1.76632 L33.18696,1.46792 C33.18696,1.30872 33.30696,1.20872 33.44616,1.20872 L42.00296,1.20872 C42.16216,1.20872 42.26216,1.32872 42.26216,1.46792 L42.26216,1.80632 C42.26216,1.94552 42.16216,2.06472 42.00296,2.06472 L38.18216,2.06472 L38.18216,14.88072 C38.18216,15.01992 38.06296,15.13912 37.86376,15.13912 L37.50536,15.13912 C37.36616,15.13912 37.24696,15.01992 37.24696,14.88072 L37.24696,2.06472 Z" id="Fill-1" fill="#FFFFFF"></path>
                <path d="M33.44592,1.39296 C33.42352,1.39296 33.37152,1.40016 33.37152,1.46736 L33.37152,1.76656 C33.37152,1.85056 33.38832,1.87136 33.38832,1.87136 C33.39072,1.87376 33.40752,1.88096 33.44592,1.88096 L37.43072,1.88096 L37.43072,14.88096 C37.43072,14.91856 37.46832,14.95536 37.50592,14.95536 L37.86352,14.95536 C37.94272,14.95536 37.99872,14.92496 37.99872,14.88096 L37.99872,1.88096 L42.00352,1.88096 C42.07072,1.88096 42.07792,1.82816 42.07792,1.80576 L42.07792,1.46736 C42.07792,1.44496 42.07072,1.39296 42.00352,1.39296 L33.44592,1.39296 Z M37.86352,15.32336 L37.50592,15.32336 C37.26592,15.32336 37.06272,15.12016 37.06272,14.88096 L37.06272,2.24896 L33.44592,2.24896 C33.31312,2.24896 33.00352,2.20176 33.00352,1.76656 L33.00352,1.46736 C33.00352,1.21536 33.19392,1.02496 33.44592,1.02496 L42.00352,1.02496 C42.25552,1.02496 42.44592,1.21536 42.44592,1.46736 L42.44592,1.80576 C42.44592,2.05856 42.25552,2.24896 42.00352,2.24896 L38.36592,2.24896 L38.36592,14.88096 C38.36592,15.13296 38.14992,15.32336 37.86352,15.32336 L37.86352,15.32336 Z" id="Fill-3" fill="#FFFFFF"></path>
                <path d="M44.98328,1.46776 C44.98328,1.32856 45.10248,1.20936 45.24168,1.20936 L53.22168,1.20936 C53.36168,1.20936 53.48088,1.32856 53.48088,1.46776 L53.48088,1.80616 C53.48088,1.94536 53.36168,2.06456 53.22168,2.06456 L45.93848,2.06456 L45.93848,8.01016 L52.24728,8.01016 C52.38648,8.01016 52.50568,8.13016 52.50568,8.26936 L52.50568,8.60776 C52.50568,8.74696 52.38648,8.86616 52.24728,8.86616 L45.93848,8.86616 L45.93848,14.30376 L53.22168,14.30376 C53.36168,14.30376 53.48088,14.42296 53.48088,14.56216 L53.48088,14.88056 C53.48088,15.01976 53.36168,15.13896 53.22168,15.13896 L45.24168,15.13896 C45.10248,15.13896 44.98328,15.01976 44.98328,14.88056 L44.98328,1.46776 Z" id="Fill-5" fill="#FFFFFF"></path>
                <path d="M45.242,1.39296 C45.2044,1.39296 45.1676,1.42976 45.1676,1.46736 L45.1676,14.88096 C45.1676,14.91856 45.2044,14.95536 45.242,14.95536 L53.222,14.95536 C53.2596,14.95536 53.2972,14.91856 53.2972,14.88096 L53.2972,14.56256 C53.2972,14.52416 53.2596,14.48736 53.222,14.48736 L45.7548,14.48736 L45.7548,8.68256 L52.2468,8.68256 C52.2844,8.68256 52.322,8.64496 52.322,8.60736 L52.322,8.26896 C52.322,8.23136 52.2844,8.19456 52.2468,8.19456 L45.7548,8.19456 L45.7548,1.88096 L53.222,1.88096 C53.2596,1.88096 53.2972,1.84416 53.2972,1.80576 L53.2972,1.46736 C53.2972,1.42976 53.2596,1.39296 53.222,1.39296 L45.242,1.39296 Z M53.222,15.32336 L45.242,15.32336 C45.002,15.32336 44.7996,15.12016 44.7996,14.88096 L44.7996,1.46736 C44.7996,1.22816 45.002,1.02496 45.242,1.02496 L53.222,1.02496 C53.462,1.02496 53.6644,1.22816 53.6644,1.46736 L53.6644,1.80576 C53.6644,2.04576 53.462,2.24896 53.222,2.24896 L46.1228,2.24896 L46.1228,7.82656 L52.2468,7.82656 C52.4868,7.82656 52.6892,8.02896 52.6892,8.26896 L52.6892,8.60736 C52.6892,8.84736 52.4868,9.04976 52.2468,9.04976 L46.1228,9.04976 L46.1228,14.11936 L53.222,14.11936 C53.462,14.11936 53.6644,14.32256 53.6644,14.56256 L53.6644,14.88096 C53.6644,15.12016 53.462,15.32336 53.222,15.32336 L53.222,15.32336 Z" id="Fill-7" fill="#FFFFFF"></path>
                <path d="M62.49112,8.9304 C64.40152,8.9304 66.01352,7.4376 66.01352,5.468 C66.01352,3.5768 64.40152,2.1248 62.47112,2.1248 L58.29192,2.1248 L58.29192,8.9304 L62.49112,8.9304 Z M57.33672,1.468 C57.33672,1.3288 57.43672,1.2088 57.59592,1.2088 L62.53112,1.2088 C64.95912,1.2088 66.96872,3.04 66.96872,5.468 C66.96872,7.4776 65.57592,9.0896 63.68552,9.6272 L66.59032,14.7808 C66.69032,14.94 66.65032,15.1392 66.45112,15.1392 L65.83432,15.1392 C65.69512,15.1392 65.61512,15.08 65.55592,14.96 L62.67032,9.7464 C62.41112,9.7664 62.19272,9.7664 61.93352,9.7664 L58.27192,9.7664 L58.27192,14.8808 C58.27192,15.02 58.15272,15.1392 57.95352,15.1392 L57.59592,15.1392 C57.45592,15.1392 57.33672,15.02 57.33672,14.8808 L57.33672,1.468 Z" id="Fill-9" fill="#FFFFFF"></path>
                <path d="M58.47608,8.74648 L62.49128,8.74648 C64.33208,8.74648 65.82968,7.27528 65.82968,5.46808 C65.82968,3.72568 64.32328,2.30808 62.47128,2.30808 L58.47608,2.30808 L58.47608,8.74648 Z M62.49128,9.11448 L58.10808,9.11448 L58.10808,1.94088 L62.47128,1.94088 C64.52568,1.94088 66.19768,3.52248 66.19768,5.46808 C66.19768,7.47848 64.53448,9.11448 62.49128,9.11448 L62.49128,9.11448 Z M62.77368,9.55368 L65.71688,14.87128 C65.75368,14.94488 65.77608,14.95528 65.83448,14.95528 L66.45128,14.95528 L66.45128,14.95528 C66.46088,14.95528 66.46088,14.92088 66.43448,14.87848 L63.41048,9.51368 L63.63528,9.44968 C65.51928,8.91448 66.78488,7.31448 66.78488,5.46808 C66.78488,3.18248 64.91608,1.39288 62.53128,1.39288 L57.59528,1.39288 C57.52808,1.39288 57.52088,1.44568 57.52088,1.46808 L57.52088,14.88088 C57.52088,14.91848 57.55768,14.95528 57.59528,14.95528 L57.95368,14.95528 C58.03288,14.95528 58.08808,14.92488 58.08808,14.88088 L58.08808,9.58248 L61.93368,9.58248 C62.18648,9.58248 62.40488,9.58248 62.65608,9.56328 L62.77368,9.55368 Z M66.45128,15.32328 L65.83448,15.32328 C65.63048,15.32328 65.48568,15.23128 65.39128,15.04248 L62.56568,9.93768 C62.34968,9.94968 62.15448,9.94968 61.93368,9.94968 L58.45608,9.94968 L58.45608,14.88088 C58.45608,15.13288 58.24008,15.32328 57.95368,15.32328 L57.59528,15.32328 C57.35608,15.32328 57.15288,15.12088 57.15288,14.88088 L57.15288,1.46808 C57.15288,1.21528 57.34328,1.02488 57.59528,1.02488 L62.53128,1.02488 C65.12248,1.02488 67.15288,2.97688 67.15288,5.46808 C67.15288,7.40648 65.87848,9.09448 63.95768,9.73528 L66.75048,14.69048 C66.84008,14.83368 66.85288,15.00888 66.78008,15.14168 C66.71608,15.25688 66.59608,15.32328 66.45128,15.32328 L66.45128,15.32328 Z" id="Fill-11" fill="#FFFFFF"></path>
                <path d="M73.65032,8.3732 L68.57592,1.5076 C68.45592,1.3484 68.53592,1.2092 68.73512,1.2092 L69.33192,1.2092 C69.43112,1.2092 69.53112,1.2492 69.59032,1.3284 L74.12792,7.5172 L78.74472,1.3284 C78.80472,1.2492 78.90392,1.2092 79.00392,1.2092 L79.60072,1.2092 C79.79992,1.2092 79.87912,1.3484 79.75992,1.5076 L74.58552,8.3532 L74.58552,14.8804 C74.58552,15.0196 74.46632,15.1396 74.32712,15.1396 C74.06792,15.1396 73.65032,15.1988 73.65032,14.8804 L73.65032,8.3732 Z" id="Fill-13" fill="#FFFFFF"></path>
                <path d="M68.72,1.39344 C68.7208,1.39424 68.7216,1.39584 68.7224,1.39744 L73.8344,8.31264 L73.8344,14.88064 C73.8344,14.89184 73.8352,14.91184 73.8424,14.91824 C73.892,14.96624 74.1008,14.96064 74.2128,14.95744 C74.2528,14.95664 74.2912,14.95504 74.3272,14.95504 C74.3648,14.95504 74.4016,14.91824 74.4016,14.88064 L74.4016,8.29184 L79.6128,1.39664 C79.6136,1.39584 79.6144,1.39424 79.6152,1.39344 C79.6112,1.39344 79.6056,1.39264 79.6008,1.39264 L79.0032,1.39264 C78.956,1.39264 78.9128,1.41024 78.892,1.43904 L74.1264,7.82704 L69.4424,1.43744 C69.4224,1.41024 69.3792,1.39264 69.332,1.39264 L68.7352,1.39264 C68.7296,1.39264 68.7248,1.39344 68.72,1.39344 M74.092,15.32784 C73.9104,15.32784 73.7152,15.30784 73.5864,15.18224 C73.5312,15.12864 73.4664,15.03344 73.4664,14.88064 L73.4664,8.43344 L68.428,1.61664 C68.3304,1.48624 68.3088,1.34144 68.3688,1.22064 C68.4312,1.09664 68.5648,1.02544 68.7352,1.02544 L69.332,1.02544 C69.4952,1.02544 69.6472,1.09744 69.7376,1.21824 L74.1288,7.20784 L78.5976,1.21824 C78.688,1.09744 78.84,1.02544 79.0032,1.02544 L79.6008,1.02544 C79.7704,1.02544 79.904,1.09664 79.9664,1.22064 C80.0264,1.34144 80.0056,1.48624 79.9072,1.61744 L74.7696,8.41504 L74.7696,14.88064 C74.7696,15.12064 74.5672,15.32304 74.3272,15.32304 C74.2944,15.32304 74.26,15.32384 74.2232,15.32544 C74.1816,15.32624 74.1368,15.32784 74.092,15.32784" id="Fill-15" fill="#FFFFFF"></path>
                <path d="M1.13912,8.9304 L1.13912,2.1248 L5.31832,2.1248 C7.24872,2.1248 8.86072,3.5768 8.86072,5.468 C8.86072,7.4376 7.24872,8.9304 5.33832,8.9304 L1.13912,8.9304 Z M9.81592,5.468 C9.81592,3.04 7.80552,1.2088 5.37752,1.2088 L0.44232,1.2088 C0.28312,1.2088 0.18392,1.3288 0.18392,1.468 L0.18392,14.8808 C0.18392,15.02 0.30312,15.1392 0.44232,15.1392 L0.80072,15.1392 C0.99992,15.1392 1.11912,15.02 1.11912,14.8808 L1.11912,9.7664 L4.78072,9.7664 C5.03992,9.7664 5.25832,9.7664 5.51752,9.7464 L5.52392,9.7584 C5.94552,9.7464 6.30792,9.7064 6.63832,9.5928 C8.47352,9.0256 9.81592,7.4392 9.81592,5.468 L9.81592,5.468 Z" id="Fill-17" fill="#FFFFFF"></path>
                <g id="Group-21" transform="translate(0.000000, 0.348480)">
                    <mask id="mask-2" fill="white">
                        <use xlink:href="#path-1"></use>
                    </mask>
                    <g id="Clip-20"></g>
                    <path d="M1.32304,8.398 L5.33824,8.398 C7.17904,8.398 8.67664,6.9268 8.67664,5.1196 C8.67664,3.3772 7.17024,1.9596 5.31824,1.9596 L1.32304,1.9596 L1.32304,8.398 Z M5.33824,8.766 L0.95504,8.766 L0.95504,1.5924 L5.31824,1.5924 C7.37264,1.5924 9.04464,3.174 9.04464,5.1196 C9.04464,7.13 7.38144,8.766 5.33824,8.766 L5.33824,8.766 Z M0.44224,1.0444 C0.37504,1.0444 0.36784,1.0972 0.36784,1.1196 L0.36784,14.5324 C0.36784,14.57 0.40464,14.6068 0.44224,14.6068 L0.80064,14.6068 C0.87984,14.6068 0.93504,14.5764 0.93504,14.5324 L0.93504,9.234 L4.78064,9.234 C5.03344,9.234 5.25184,9.234 5.50304,9.2148 L5.62064,9.2052 L5.63024,9.222 C6.03424,9.2052 6.32224,9.1588 6.57824,9.07 C8.43504,8.4964 9.63184,6.9468 9.63184,5.1196 C9.63184,2.834 7.76304,1.0444 5.37824,1.0444 L0.44224,1.0444 Z M0.80064,14.9748 L0.44224,14.9748 C0.20304,14.9748 -0.00016,14.7724 -0.00016,14.5324 L-0.00016,1.1196 C-0.00016,0.8668 0.19024,0.6764 0.44224,0.6764 L5.37824,0.6764 C7.96944,0.6764 9.99984,2.6284 9.99984,5.1196 C9.99984,7.0804 8.67024,8.8092 6.69184,9.4196 C6.38144,9.5268 6.03264,9.5796 5.52864,9.5932 L5.41744,9.5964 L5.41344,9.5892 C5.19664,9.6012 5.00144,9.6012 4.78064,9.6012 L1.30304,9.6012 L1.30304,14.5324 C1.30304,14.7844 1.08704,14.9748 0.80064,14.9748 L0.80064,14.9748 Z" id="Fill-19" fill="#FFFFFF" mask="url(#mask-2)"></path>
                </g>
                <path d="M6.53208,9.62688 C6.56808,9.61648 6.60248,9.60368 6.63768,9.59248 C6.30808,9.70608 5.94568,9.74608 5.52408,9.75808 L8.40248,14.96048 C8.46248,15.07968 8.54168,15.13968 8.68168,15.13968 L9.29848,15.13968 C9.49688,15.13968 9.53688,14.94048 9.43768,14.78128 L6.53208,9.62688 Z" id="Fill-22" fill="#FFFFFF"></path>
                <path d="M5.82784,9.92784 L8.56384,14.87104 C8.60064,14.94544 8.62304,14.95504 8.68144,14.95504 L9.29824,14.95504 C9.30224,14.94864 9.30784,14.92144 9.28144,14.87824 L6.44144,9.84064 C6.26064,9.88304 6.06224,9.91104 5.82784,9.92784 M9.29824,15.32304 L8.68144,15.32304 C8.47744,15.32304 8.33264,15.23104 8.23824,15.04224 L5.21664,9.58304 L5.51904,9.57424 C5.95424,9.56224 6.25984,9.52064 6.52704,9.43584 C6.52864,9.43504 6.53104,9.43424 6.53344,9.43344 L6.57664,9.41904 C6.57744,9.41904 6.57744,9.41904 6.57824,9.41824 L6.58384,9.41664 L6.63344,9.56944 L6.69264,9.53664 L9.59744,14.69104 C9.68704,14.83344 9.69984,15.00944 9.62704,15.14144 C9.56304,15.25664 9.44304,15.32304 9.29824,15.32304" id="Fill-24" fill="#FFFFFF"></path>
                <path d="M21.68712,8.04056 C21.61032,8.04056 21.53272,8.02136 21.46232,7.98056 C21.24472,7.85576 21.17032,7.57896 21.29512,7.36216 C22.07112,6.01256 23.61352,4.69336 24.84712,4.83576 C25.09512,4.86296 25.27432,5.08696 25.24712,5.33576 C25.21992,5.58456 24.99112,5.76696 24.74712,5.73576 C24.01832,5.66056 22.75112,6.64536 22.07992,7.81336 C21.99592,7.95896 21.84392,8.04056 21.68712,8.04056" id="Fill-26" fill="#FFFFFF"></path>
                <path d="M24.66144,5.00936 C23.54384,5.00936 22.15184,6.24056 21.45424,7.45336 C21.41824,7.51576 21.40864,7.58856 21.42784,7.65736 C21.44624,7.72696 21.49104,7.78456 21.55344,7.82056 C21.67984,7.89336 21.84864,7.84696 21.92064,7.72136 C22.63184,6.48376 23.96304,5.46856 24.76544,5.55336 C24.83744,5.56136 24.90544,5.54296 24.96144,5.49896 C25.01984,5.45336 25.05664,5.38776 25.06464,5.31576 C25.08064,5.16856 24.97424,5.03496 24.82704,5.01896 C24.77264,5.01256 24.71744,5.00936 24.66144,5.00936 M21.68704,8.22456 C21.57584,8.22456 21.46624,8.19496 21.37024,8.13976 C21.22304,8.05496 21.11744,7.91816 21.07264,7.75336 C21.02864,7.58936 21.05024,7.41816 21.13504,7.27016 C21.94384,5.86536 23.56064,4.50056 24.86784,4.65336 C25.21584,4.69176 25.46864,5.00696 25.43024,5.35576 C25.41104,5.52456 25.32384,5.68216 25.18944,5.78776 C25.05504,5.89336 24.89024,5.93976 24.72384,5.91816 C24.14144,5.85976 22.92464,6.71256 22.23984,7.90536 C22.12624,8.10216 21.91424,8.22456 21.68704,8.22456" id="Fill-28" fill="#FFFFFF"></path>
                <path d="M21.68712,11.9276 C21.61432,11.9276 21.54072,11.91 21.47272,11.8732 C21.25272,11.7548 21.17032,11.4796 21.28872,11.2596 C21.49912,10.8708 23.40232,7.4708 25.56472,7.8988 C25.81032,7.9476 25.96952,8.186 25.91992,8.4308 C25.87112,8.6764 25.63192,8.8348 25.38792,8.7868 C24.11032,8.5276 22.53672,10.8556 22.08632,11.69 C22.00392,11.8412 21.84792,11.9276 21.68712,11.9276" id="Fill-30" fill="#FFFFFF"></path>
                <path d="M25.18136,8.04488 C23.29096,8.04488 21.64296,10.99128 21.45096,11.34728 C21.41656,11.41048 21.40936,11.48328 21.43016,11.55128 C21.45016,11.62008 21.49656,11.67688 21.55976,11.71128 C21.68696,11.78008 21.85656,11.72808 21.92376,11.60248 C22.42616,10.67368 24.03336,8.32408 25.42456,8.60648 C25.56936,8.63448 25.71096,8.54008 25.73976,8.39528 C25.75416,8.32488 25.73976,8.25288 25.69976,8.19288 C25.65976,8.13368 25.59896,8.09288 25.52856,8.07848 C25.41256,8.05608 25.29656,8.04488 25.18136,8.04488 M21.68696,12.11128 C21.58136,12.11128 21.47736,12.08488 21.38456,12.03448 C21.23576,11.95448 21.12616,11.82008 21.07736,11.65688 C21.02856,11.49448 21.04616,11.32168 21.12696,11.17208 C21.34376,10.77128 23.31176,7.26568 25.60056,7.71768 C25.76696,7.75128 25.91096,7.84728 26.00616,7.98888 C26.10056,8.13048 26.13416,8.30008 26.10056,8.46728 C26.03256,8.81048 25.69656,9.03448 25.35256,8.96728 C24.27176,8.74808 22.79416,10.76568 22.24776,11.77688 C22.13656,11.98328 21.92216,12.11128 21.68696,12.11128" id="Fill-32" fill="#FFFFFF"></path>
                <path d="M21.688,8.04056 C21.5312,8.04056 21.3792,7.95896 21.2952,7.81336 C20.6232,6.64536 19.3528,5.66056 18.628,5.73576 C18.3776,5.76536 18.156,5.58456 18.128,5.33576 C18.1008,5.08696 18.28,4.86296 18.528,4.83576 C19.768,4.69416 21.304,6.01256 22.08,7.36216 C22.2048,7.57896 22.1304,7.85576 21.9128,7.98056 C21.8424,8.02136 21.7648,8.04056 21.688,8.04056" id="Fill-34" fill="#FFFFFF"></path>
                <path d="M18.70264,5.5484 C19.51384,5.5484 20.76904,6.5308 21.45384,7.722 C21.52584,7.8468 21.69624,7.8932 21.82104,7.8212 C21.88424,7.7852 21.92824,7.7268 21.94744,7.658 C21.96584,7.5884 21.95704,7.5164 21.92104,7.454 C21.17224,6.1524 19.70904,4.886 18.54904,5.0188 C18.47704,5.0268 18.41304,5.062 18.36824,5.118 C18.32344,5.174 18.30264,5.2444 18.31064,5.3156 C18.31864,5.3884 18.35464,5.4524 18.41064,5.498 C18.46664,5.542 18.53624,5.5612 18.60664,5.5532 C18.63784,5.55 18.66984,5.5484 18.70264,5.5484 M21.68824,8.2244 C21.46104,8.2244 21.24904,8.102 21.13544,7.9052 C20.44904,6.7124 19.23624,5.858 18.64744,5.9188 C18.48104,5.938 18.31464,5.8908 18.18184,5.786 C18.04824,5.6796 17.96424,5.5268 17.94504,5.3564 C17.92664,5.1868 17.97464,5.0212 18.08104,4.8884 C18.18744,4.7556 18.33864,4.6716 18.50824,4.6532 C19.86584,4.4996 21.44344,5.886 22.23944,7.27 C22.32424,7.418 22.34664,7.5892 22.30264,7.754 C22.25784,7.918 22.15224,8.0548 22.00424,8.1396 C21.90904,8.1948 21.79944,8.2244 21.68824,8.2244" id="Fill-36" fill="#FFFFFF"></path>
                <path d="M21.688,11.9276 C21.5272,11.9276 21.3712,11.8412 21.2888,11.69 C20.8384,10.8564 19.2688,8.5292 17.9872,8.7868 C17.7424,8.8332 17.504,8.6764 17.4552,8.4308 C17.4056,8.186 17.5648,7.9476 17.8104,7.8988 C19.9632,7.4692 21.876,10.8708 22.0864,11.2596 C22.2048,11.4796 22.1224,11.754 21.9032,11.8732 C21.8344,11.91 21.7608,11.9276 21.688,11.9276" id="Fill-38" fill="#FFFFFF"></path>
                <path d="M18.18648,8.5832 C19.51688,8.5832 20.97688,10.7256 21.45048,11.6024 C21.51928,11.728 21.68728,11.78 21.81608,11.7112 C21.87848,11.6768 21.92488,11.62 21.94568,11.5512 C21.96568,11.4824 21.95848,11.4104 21.92408,11.3472 C21.84328,11.1968 19.91128,7.6664 17.84648,8.0784 C17.77608,8.0928 17.71528,8.1336 17.67528,8.1936 C17.63528,8.2528 17.62088,8.3248 17.63528,8.3952 C17.66408,8.5392 17.80728,8.6344 17.95288,8.6064 C18.03048,8.5904 18.10808,8.5832 18.18648,8.5832 M21.68808,12.1112 C21.45368,12.1112 21.23928,11.9832 21.12728,11.7776 C20.58088,10.7672 19.10488,8.7504 18.02328,8.9672 C17.67768,9.032 17.34328,8.808 17.27448,8.4672 C17.24088,8.3 17.27528,8.1304 17.36968,7.9888 C17.46408,7.848 17.60728,7.7512 17.77448,7.7184 C20.06408,7.2624 22.03128,10.7704 22.24808,11.172 C22.32888,11.3216 22.34648,11.4936 22.29768,11.6568 C22.24888,11.82 22.14008,11.9544 21.99048,12.0344 C21.89688,12.0848 21.79288,12.1112 21.68808,12.1112" id="Fill-40" fill="#FFFFFF"></path>
                <path d="M18.83512,1.8896 C15.36952,1.8896 12.55032,4.7088 12.55032,8.1744 C12.55032,11.64 15.36952,14.4592 18.83512,14.4592 C22.30072,14.4592 25.11992,11.64 25.11992,8.1744 C25.11992,4.7088 22.30072,1.8896 18.83512,1.8896 M18.83512,15.3648 C14.87032,15.3648 11.64472,12.1392 11.64472,8.1744 C11.64472,4.2096 14.87032,0.984 18.83512,0.984 C22.79992,0.984 26.02552,4.2096 26.02552,8.1744 C26.02552,12.1392 22.79992,15.3648 18.83512,15.3648" id="Fill-42" fill="#FFFFFF"></path>
                <g id="Group-46" transform="translate(11.200000, 0.348480)">
                    <mask id="mask-4" fill="white">
                        <use xlink:href="#path-3"></use>
                    </mask>
                    <g id="Clip-45"></g>
                    <path d="M7.63512,1.72496 C4.27112,1.72496 1.53432,4.46176 1.53432,7.82576 C1.53432,11.18976 4.27112,13.92656 7.63512,13.92656 C10.99912,13.92656 13.73592,11.18976 13.73592,7.82576 C13.73592,4.46176 10.99912,1.72496 7.63512,1.72496 M7.63512,14.29456 C4.06792,14.29456 1.16632,11.39216 1.16632,7.82576 C1.16632,4.25856 4.06792,1.35696 7.63512,1.35696 C11.20152,1.35696 14.10392,4.25856 14.10392,7.82576 C14.10392,11.39216 11.20152,14.29456 7.63512,14.29456 M7.63512,0.81936 C3.77192,0.81936 0.62872,3.96256 0.62872,7.82576 C0.62872,11.68896 3.77192,14.83216 7.63512,14.83216 C11.49832,14.83216 14.64152,11.68896 14.64152,7.82576 C14.64152,3.96256 11.49832,0.81936 7.63512,0.81936 M7.63512,15.20016 C3.56872,15.20016 0.26072,11.89216 0.26072,7.82576 C0.26072,3.75936 3.56872,0.45136 7.63512,0.45136 C11.70152,0.45136 15.00952,3.75936 15.00952,7.82576 C15.00952,11.89216 11.70152,15.20016 7.63512,15.20016" id="Fill-44" fill="#FFFFFF" mask="url(#mask-4)"></path>
                </g>
                <path d="M21.68752,14.24136 C21.43712,14.24136 21.23472,14.03896 21.23472,13.78856 L21.23472,2.56856 C21.23472,2.31816 21.43712,2.11576 21.68752,2.11576 C21.93792,2.11576 22.14032,2.31816 22.14032,2.56856 L22.14032,13.78856 C22.14032,14.03896 21.93792,14.24136 21.68752,14.24136" id="Fill-47" fill="#FFFFFF"></path>
                <path d="M21.68752,2.2992 C21.53952,2.2992 21.41872,2.42 21.41872,2.568 L21.41872,13.7888 C21.41872,13.9368 21.53952,14.0576 21.68752,14.0576 C21.83552,14.0576 21.95632,13.9368 21.95632,13.7888 L21.95632,2.568 C21.95632,2.42 21.83552,2.2992 21.68752,2.2992 M21.68752,14.4256 C21.33632,14.4256 21.05072,14.14 21.05072,13.7888 L21.05072,2.568 C21.05072,2.2168 21.33632,1.9312 21.68752,1.9312 C22.03872,1.9312 22.32432,2.2168 22.32432,2.568 L22.32432,13.7888 C22.32432,14.14 22.03872,14.4256 21.68752,14.4256" id="Fill-49" fill="#FFFFFF"></path>
                <path d="M24.5452,1.8896 C21.0796,1.8896 18.2604,4.7088 18.2604,8.1744 C18.2604,11.64 21.0796,14.4592 24.5452,14.4592 C28.0108,14.4592 30.83,11.64 30.83,8.1744 C30.83,4.7088 28.0108,1.8896 24.5452,1.8896 M24.5452,15.3648 C20.5804,15.3648 17.3548,12.1392 17.3548,8.1744 C17.3548,4.2096 20.5804,0.984 24.5452,0.984 C28.51,0.984 31.7356,4.2096 31.7356,8.1744 C31.7356,12.1392 28.51,15.3648 24.5452,15.3648" id="Fill-51" fill="#FFFFFF"></path>
                <g id="Group-55" transform="translate(16.800000, 0.348480)">
                    <mask id="mask-6" fill="white">
                        <use xlink:href="#path-5"></use>
                    </mask>
                    <g id="Clip-54"></g>
                    <path d="M7.74528,1.72496 C4.38128,1.72496 1.64448,4.46176 1.64448,7.82576 C1.64448,11.18976 4.38128,13.92656 7.74528,13.92656 C11.10928,13.92656 13.84608,11.18976 13.84608,7.82576 C13.84608,4.46176 11.10928,1.72496 7.74528,1.72496 M7.74528,14.29456 C4.17808,14.29456 1.27648,11.39216 1.27648,7.82576 C1.27648,4.25856 4.17808,1.35696 7.74528,1.35696 C11.31168,1.35696 14.21408,4.25856 14.21408,7.82576 C14.21408,11.39216 11.31168,14.29456 7.74528,14.29456 M7.74528,0.81936 C3.88128,0.81936 0.73808,3.96256 0.73808,7.82576 C0.73808,11.68896 3.88128,14.83216 7.74528,14.83216 C11.60848,14.83216 14.75168,11.68896 14.75168,7.82576 C14.75168,3.96256 11.60848,0.81936 7.74528,0.81936 M7.74528,15.20016 C3.67888,15.20016 0.37088,11.89216 0.37088,7.82576 C0.37088,3.75936 3.67888,0.45136 7.74528,0.45136 C11.81168,0.45136 15.11968,3.75936 15.11968,7.82576 C15.11968,11.89216 11.81168,15.20016 7.74528,15.20016" id="Fill-53" fill="#FFFFFF" mask="url(#mask-6)"></path>
                </g>
            </g>
        </g>
    </g>
</svg>