<?xml version="1.0" encoding="UTF-8"?>
<svg width="364px" height="67px" viewBox="0 0 364 67" version="1.1" xmlns="http://www.w3.org/2000/svg" xmlns:xlink="http://www.w3.org/1999/xlink">
    <!-- Generator: Sketch 43.2 (39069) - http://www.bohemiancoding.com/sketch -->
    <title>2 Color</title>
    <desc>Created with Sketch.</desc>
    <defs>
        <polygon id="path-1" points="65.8568258 66.2580645 0.268890323 66.2580645 0.268890323 0.671051613 65.8568258 0.671051613 65.8568258 66.2580645"></polygon>
        <polygon id="path-3" points="65.8992645 66.2580645 0.311329032 66.2580645 0.311329032 0.671051613 65.8992645 0.671051613 65.8992645 66.2580645"></polygon>
    </defs>
    <g id="Page-1" stroke="none" stroke-width="1" fill="none" fill-rule="evenodd">
        <g id="2-Color" transform="translate(-168.000000, -94.000000)">
            <g transform="translate(168.000000, 94.000000)">
                <path d="M169.036065,5.76814194 L151.700774,5.76814194 C150.79329,5.76814194 150.52071,5.22381935 150.52071,4.40691613 L150.52071,3.04569032 C150.52071,2.31936774 151.065032,1.86562581 151.700774,1.86562581 L190.727613,1.86562581 C191.453935,1.86562581 191.907677,2.40994839 191.907677,3.04569032 L191.907677,4.58807742 C191.907677,5.22381935 191.453935,5.76814194 190.727613,5.76814194 L173.301742,5.76814194 L173.301742,64.2186581 C173.301742,64.8535613 172.757419,65.3978839 171.849935,65.3978839 L170.216129,65.3978839 C169.580387,65.3978839 169.036065,64.8535613 169.036065,64.2186581 L169.036065,5.76814194 Z" id="Fill-1" fill="#92BD2F"></path>
                <path d="M204.319574,3.04527097 C204.319574,2.40952903 204.863897,1.86520645 205.499639,1.86520645 L241.894606,1.86520645 C242.530348,1.86520645 243.074671,2.40952903 243.074671,3.04527097 L243.074671,4.58849677 C243.074671,5.2234 242.530348,5.76772258 241.894606,5.76772258 L208.675832,5.76772258 L208.675832,32.8848839 L237.447768,32.8848839 C238.082671,32.8848839 238.626994,33.4300452 238.626994,34.0649484 L238.626994,35.6081742 C238.626994,36.2430774 238.082671,36.7882387 237.447768,36.7882387 L208.675832,36.7882387 L208.675832,61.5863677 L241.894606,61.5863677 C242.530348,61.5863677 243.074671,62.1306903 243.074671,62.7664323 L243.074671,64.2182387 C243.074671,64.8539806 242.530348,65.3983032 241.894606,65.3983032 L205.499639,65.3983032 C204.863897,65.3983032 204.319574,64.8539806 204.319574,64.2182387 L204.319574,3.04527097 Z" id="Fill-3" fill="#92BD2F"></path>
                <path d="M284.168845,37.0806968 C292.8822,37.0806968 300.23349,30.273729 300.23349,21.2886323 C300.23349,12.6658581 292.8822,6.04005161 284.078265,6.04005161 L265.018587,6.04005161 L265.018587,37.0806968 L284.168845,37.0806968 Z M260.66149,3.04501935 C260.66149,2.41011613 261.115232,1.86495484 261.841555,1.86495484 L284.350006,1.86495484 C295.42349,1.86495484 304.589748,10.2151484 304.589748,21.2886323 C304.589748,30.4548903 298.236523,37.8070194 289.614587,40.257729 L302.865361,63.7642452 C303.319103,64.4905677 303.137942,65.3980516 302.230458,65.3980516 L299.416587,65.3980516 C298.781684,65.3980516 298.418523,65.125471 298.145942,64.5811484 L284.985748,40.8020516 C283.805684,40.8926323 282.807619,40.8926323 281.627555,40.8926323 L264.927168,40.8926323 L264.927168,64.2179871 C264.927168,64.853729 264.382845,65.3980516 263.475361,65.3980516 L261.841555,65.3980516 C261.206652,65.3980516 260.66149,64.853729 260.66149,64.2179871 L260.66149,3.04501935 Z" id="Fill-5" fill="#92BD2F"></path>
                <path d="M335.063342,34.5394065 L311.919148,3.22701935 C311.374826,2.50069677 311.737987,1.86579355 312.645471,1.86579355 L315.367923,1.86579355 C315.821665,1.86579355 316.275406,2.04695484 316.547987,2.41011613 L337.241471,30.6368903 L358.298116,2.41011613 C358.570697,2.04695484 359.024439,1.86579355 359.478181,1.86579355 L362.200632,1.86579355 C363.108955,1.86579355 363.471277,2.50069677 362.926955,3.22701935 L339.329019,34.4488258 L339.329019,64.2179871 C339.329019,64.853729 338.784697,65.3980516 338.148955,65.3980516 C336.969729,65.3980516 335.063342,65.6706323 335.063342,64.2179871 L335.063342,34.5394065 Z" id="Fill-7" fill="#92BD2F"></path>
                <path d="M4.35650968,37.0806968 L4.35650968,6.04005161 L23.4161871,6.04005161 C32.2201226,6.04005161 39.5714129,12.6658581 39.5714129,21.2886323 C39.5714129,30.273729 32.2201226,37.0806968 23.5067677,37.0806968 L4.35650968,37.0806968 Z M43.9285097,21.2886323 C43.9285097,10.2151484 34.7614129,1.86495484 23.6887677,1.86495484 L1.17947742,1.86495484 C0.453993548,1.86495484 0.000251612903,2.41011613 0.000251612903,3.04501935 L0.000251612903,64.2179871 C0.000251612903,64.853729 0.544574194,65.3980516 1.17947742,65.3980516 L2.81328387,65.3980516 C3.72076774,65.3980516 4.26592903,64.853729 4.26592903,64.2179871 L4.26592903,40.8926323 L20.9654774,40.8926323 C22.1455419,40.8926323 23.1444452,40.8926323 24.323671,40.8020516 L24.3538645,40.8565677 C26.2787032,40.8028903 27.9318,40.6200516 29.4356065,40.1008903 C37.8084452,37.5151484 43.9285097,30.2812774 43.9285097,21.2886323 L43.9285097,21.2886323 Z" id="Fill-9" fill="#92BD2F"></path>
                <path d="M28.9527613,40.2573097 C29.1163097,40.2111806 29.2731484,40.1507935 29.4350194,40.100471 C27.9312129,40.6196323 26.2781161,40.802471 24.3541161,40.8561484 L37.4841161,64.5815677 C37.7566968,65.1258903 38.1198581,65.398471 38.7547613,65.398471 L41.5686323,65.398471 C42.4761161,65.398471 42.6572774,64.4901484 42.2035355,63.7646645 L28.9527613,40.2573097 Z" id="Fill-11" fill="#92BD2F"></path>
                <path d="M98.0712452,33.0226 C97.7223419,33.0226 97.3675677,32.9336968 97.0446645,32.7475032 C96.0541484,32.1796968 95.7136323,30.9166 96.2822774,29.9277613 C99.8216323,23.7741484 106.856729,17.7555677 112.481955,18.4072452 C113.61589,18.5322129 114.432794,19.5537613 114.306987,20.6868581 C114.182019,21.8216323 113.142019,22.654471 112.026535,22.5110516 C108.704406,22.1688581 102.924019,26.6601484 99.8644065,31.9867935 C99.4811161,32.6518903 98.7875032,33.0226 98.0712452,33.0226" id="Fill-13" fill="#92BD2F"></path>
                <path d="M98.0712452,50.7502387 C97.7407935,50.7502387 97.4036323,50.6705613 97.0933097,50.5019806 C96.0885355,49.9610129 95.7136323,48.7079806 96.2562774,47.7040452 C97.2140839,45.9284968 105.894729,30.4241097 115.755439,32.3741097 C116.875116,32.5972065 117.601439,33.6850129 117.377503,34.8038516 C117.155245,35.9210129 116.062406,36.6439806 114.9486,36.4259161 C109.123761,35.2450129 101.946084,45.8614 99.8904065,49.6657871 C99.5171806,50.3577226 98.8051161,50.7502387 98.0712452,50.7502387" id="Fill-15" fill="#B3DB5C"></path>
                <path d="M98.075271,33.0226 C97.3590129,33.0226 96.6654,32.6518903 96.2821097,31.9867935 C93.2183032,26.6601484 87.4236581,22.1688581 84.1199806,22.5110516 C82.9768194,22.6444065 81.9661742,21.8199548 81.839529,20.6868581 C81.7137226,19.5537613 82.5306258,18.5322129 83.6645613,18.4072452 C89.3174645,17.7597613 96.3248839,23.7741484 99.8642387,29.9277613 C100.432884,30.9166 100.092368,32.1796968 99.1018516,32.7475032 C98.7789484,32.9336968 98.4241742,33.0226 98.075271,33.0226" id="Fill-17" fill="#B3DB5C"></path>
                <path d="M98.075271,50.7502387 C97.3414,50.7502387 96.6310129,50.3577226 96.2561097,49.6674645 C94.1987548,45.8639161 87.0428839,35.2492065 81.1979161,36.4259161 C80.0807548,36.637271 78.9929484,35.9210129 78.7690129,34.8038516 C78.5450774,33.6850129 79.2714,32.5980452 80.3910774,32.3741097 C90.2090129,30.4165613 98.9324323,45.9284968 99.8902387,47.7040452 C100.432884,48.7071419 100.057981,49.9593355 99.0557226,50.5011419 C98.7428839,50.6697226 98.4057226,50.7502387 98.075271,50.7502387" id="Fill-19" fill="#92BD2F"></path>
                <g id="Group-23" transform="translate(52.000000, 0.167658)">
                    <mask id="mask-2" fill="white">
                        <use xlink:href="#path-1"></use>
                    </mask>
                    <g id="Clip-22"></g>
                    <path d="M33.0641161,4.80169677 C17.2577935,4.80169677 4.39953548,17.6591161 4.39953548,33.4637613 C4.39953548,49.2692452 17.2577935,62.1275032 33.0641161,62.1275032 C48.8687613,62.1275032 61.7261806,49.2692452 61.7261806,33.4637613 C61.7261806,17.6591161 48.8687613,4.80169677 33.0641161,4.80169677 M33.0641161,66.2581484 C14.9806968,66.2581484 0.268890323,51.5463419 0.268890323,33.4637613 C0.268890323,15.3820194 14.9806968,0.671051613 33.0641161,0.671051613 C51.1458581,0.671051613 65.8568258,15.3820194 65.8568258,33.4637613 C65.8568258,51.5463419 51.1458581,66.2581484 33.0641161,66.2581484" id="Fill-21" fill="#92BD2F" mask="url(#mask-2)"></path>
                </g>
                <path d="M98.0732581,61.3028 C96.9317742,61.3028 96.0075161,60.3777032 96.0075161,59.2370581 L96.0075161,8.06402581 C96.0075161,6.92338065 96.9317742,5.99912258 98.0732581,5.99912258 C99.2147419,5.99912258 100.138161,6.92338065 100.138161,8.06402581 L100.138161,59.2370581 C100.138161,60.3777032 99.2147419,61.3028 98.0732581,61.3028" id="Fill-24" fill="#92BD2F"></path>
                <g id="Group-28" transform="translate(78.000000, 0.167658)">
                    <mask id="mask-4" fill="white">
                        <use xlink:href="#path-3"></use>
                    </mask>
                    <g id="Clip-27"></g>
                    <path d="M33.1065548,4.80169677 C17.3002323,4.80169677 4.44197419,17.6591161 4.44197419,33.4637613 C4.44197419,49.2692452 17.3002323,62.1275032 33.1065548,62.1275032 C48.9112,62.1275032 61.7686194,49.2692452 61.7686194,33.4637613 C61.7686194,17.6591161 48.9112,4.80169677 33.1065548,4.80169677 M33.1065548,66.2581484 C15.0231355,66.2581484 0.311329032,51.5463419 0.311329032,33.4637613 C0.311329032,15.3820194 15.0231355,0.671051613 33.1065548,0.671051613 C51.1882968,0.671051613 65.8992645,15.3820194 65.8992645,33.4637613 C65.8992645,51.5463419 51.1882968,66.2581484 33.1065548,66.2581484" id="Fill-26" fill="#B3DB5C" mask="url(#mask-4)"></path>
                </g>
            </g>
        </g>
    </g>
</svg>